<?xml version="1.0" ?><svg data-name="Layer 1" id="Layer_1" viewBox="0 0 128 128" xmlns="http://www.w3.org/2000/svg"><title/><path d="M111.23627,78.05762,127.52972,39.866c2.17444-5.1145-3.67523-8.97351-7.65668-9.188L27.92773,25.687l-.05737-.18494-.20166-.54333-.0434-.13037c-.0979-.30518-.21466-.6062-.34045-.9043l-.119-.32068-.01752.0011c-1.25677-2.7323-3.65887-4.99341-6.59784-4.99341H12.64886l1.19446,7.04419H20.608l18.4411,58.95654c2.09052,5.96826,4.57928,13.2135,12.28131,13.36938v.0144h58.65021a3.71864,3.71864,0,0,0,3.70581-3.70581v-.21436a3.71864,3.71864,0,0,0-3.70581-3.70581H51.57538c-3.79523.05347-4.1156-2.59937-5.35687-6.12524H105.264C108.633,84.24438,109.91931,81.18164,111.23627,78.05762Zm-60.76343-.79639h-3.3996c-1.1944,0-1.80695-1.0105-2.17444-2.1438L32.3725,34.93506c-.36755-1.13306.98-2.23547,2.17444-2.14368l6.73785.36743a2.43982,2.43982,0,0,1,2.17456,2.14368L52.6167,75.11743C52.8924,76.28125,51.63666,77.26123,50.47284,77.26123Zm13.93518,0h-3.369a2.33212,2.33212,0,0,1-2.1745-2.1438L51.94293,36.00708a2.04035,2.04035,0,0,1,2.1745-2.17432l6.891.36743A2.29036,2.29036,0,0,1,63.183,36.37451l3.39954,38.74292A2.11863,2.11863,0,0,1,64.408,77.26123Zm16.0484-2.1438a2.17643,2.17643,0,0,1-2.1745,2.1438H74.913a2.218,2.218,0,0,1-2.17456-2.1438L70.7171,37.01758a2.1259,2.1259,0,0,1,2.1745-2.17432l6.76849.36743a2.18251,2.18251,0,0,1,2.17456,2.17468Zm11.17877,2.1438H88.2356a2.10026,2.10026,0,0,1-2.17444-2.1438l3.767-37.05835a2.22218,2.22218,0,0,1,2.1745-2.17432l6.79913.36743c1.19446.06116,2.38885,1.01074,2.1745,2.17456L93.77905,75.11743A2.32843,2.32843,0,0,1,91.63519,77.26123Zm8.39172-2.1438,7.80975-36.07813c.2757-1.16382.9801-2.23584,2.17456-2.17456l6.646.36743c1.1944.0614,2.51141,1.04126,2.1745,2.14392L107.74481,75.11743c-.33691,1.1333-.98,2.1438-2.17444,2.1438h-3.369C101.007,77.26123,99.78192,76.28125,100.02692,75.11743Z" style="fill: #e6e6e6"/><rect height="10.47434" rx="4.07336" ry="4.07336" style="fill: #424242" width="18.1004" y="17.07985"/><circle cx="50.90163" cy="100.50706" r="10.41309" style="fill: #424242"/><circle cx="50.90163" cy="100.50706" r="5.91096" style="fill: #fff"/><path d="M50.84037,94.65736a4.63608,4.63608,0,0,1,.9188.06125,5.90208,5.90208,0,0,0-.27564,11.69941,4.56918,4.56918,0,0,1-.64316.06125,5.911,5.911,0,1,1,0-11.82192Z" style="fill: #e6e6e6"/><circle cx="108.17361" cy="100.50706" r="10.41309" style="fill: #424242"/><circle cx="108.17361" cy="100.50706" r="5.91096" style="fill: #fff"/><path d="M108.11236,94.65736a4.63608,4.63608,0,0,1,.9188.06125,5.90208,5.90208,0,0,0-.27564,11.69941,4.56918,4.56918,0,0,1-.64316.06125,5.911,5.911,0,0,1,0-11.82192Z" style="fill: #e6e6e6"/><path d="M4.07336,17.07985h1.562A4.085,4.085,0,0,0,1.562,21.12258v2.38888a4.0651,4.0651,0,0,0,4.07336,4.04273h-1.562A4.0651,4.0651,0,0,1,0,23.51146V21.12258A4.085,4.085,0,0,1,4.07336,17.07985Z" style="fill: #4d4d4d"/><polygon points="40.55 99.466 61.315 99.466 61.315 100.507 40.55 100.507 40.55 99.466" style="fill: #333;fill-opacity: 0.301961004734039"/><path d="M50.84037,89.642a11.363,11.363,0,0,1,11.26984,10H39.57053A11.363,11.363,0,0,1,50.84037,89.642Z" style="fill: #ccc"/><path d="M119.873,30.678l-.0825-.00448c1.53236,2.08043,2.79554,3.92531,2.79745,7.19143.00211,3.65652-1.27261,7.17877-2.5309,10.61213q-3.20493,8.74549-6.41,17.491l-3.19246,8.71107a31.04224,31.04224,0,0,1-1.81223,4.27244,15.62517,15.62517,0,0,1-4.77969,5.29275h1.40133c3.36893,0,4.65526-3.06275,5.97224-6.1867L127.52972,39.866C129.70419,34.75154,123.85448,30.89244,119.873,30.678Z" style="fill: #fff;fill-opacity: 0.50196099281311"/></svg>