<svg width="16" height="16" viewBox="0 0 16 16" fill="none" xmlns="http://www.w3.org/2000/svg">
<rect x="3" y="3" width="10" height="10" rx="5" fill="#41278D"/>
<path d="M7.99972 15.3569C12.0569 15.3569 15.3569 12.0569 15.3569 7.99972C15.3569 3.94255 12.0569 0.642578 7.99972 0.642578C3.94255 0.642578 0.642578 3.94255 0.642578 7.99972C0.642578 12.0569 3.94255 15.3569 7.99972 15.3569ZM8.18543 10.7426C8.18543 10.8451 8.10229 10.9283 7.99972 10.9283C7.89715 10.9283 7.81401 10.8451 7.81401 10.7426V7.99972C7.81401 7.89715 7.89715 7.81401 7.99972 7.81401C8.10229 7.81401 8.18543 7.89715 8.18543 7.99972V10.7426ZM7.81401 5.25686C7.81401 5.1543 7.89715 5.07115 7.99972 5.07115C8.10229 5.07115 8.18543 5.1543 8.18543 5.25686C8.18543 5.35943 8.10229 5.44258 7.99972 5.44258C7.89715 5.44258 7.81401 5.35943 7.81401 5.25686Z" fill="#F6F3FF" stroke="#41278D"/>
</svg>
