<svg width="13" height="12" viewBox="0 0 13 12" fill="none" xmlns="http://www.w3.org/2000/svg">
<path fill-rule="evenodd" clip-rule="evenodd" d="M11.3333 6.83366H7.16667V11.0003C7.16667 11.4587 6.79167 11.8337 6.33333 11.8337C5.875 11.8337 5.5 11.4587 5.5 11.0003V6.83366H1.33333C0.875 6.83366 0.5 6.45866 0.5 6.00033C0.5 5.54199 0.875 5.16699 1.33333 5.16699H5.5V1.00033C5.5 0.541992 5.875 0.166992 6.33333 0.166992C6.79167 0.166992 7.16667 0.541992 7.16667 1.00033V5.16699H11.3333C11.7917 5.16699 12.1667 5.54199 12.1667 6.00033C12.1667 6.45866 11.7917 6.83366 11.3333 6.83366Z" fill="#1A8D34"/>
</svg>
