<svg width="12" height="12" viewBox="0 0 12 12" fill="none" xmlns="http://www.w3.org/2000/svg">
<path fill-rule="evenodd" clip-rule="evenodd" d="M10.8333 6.83366H6.66667V11.0003C6.66667 11.4587 6.29167 11.8337 5.83333 11.8337C5.375 11.8337 5 11.4587 5 11.0003V6.83366H0.833333C0.375 6.83366 0 6.45866 0 6.00033C0 5.54199 0.375 5.16699 0.833333 5.16699H5V1.00033C5 0.541992 5.375 0.166992 5.83333 0.166992C6.29167 0.166992 6.66667 0.541992 6.66667 1.00033V5.16699H10.8333C11.2917 5.16699 11.6667 5.54199 11.6667 6.00033C11.6667 6.45866 11.2917 6.83366 10.8333 6.83366Z" fill="#41278D"/>
</svg>
